<?xml version="1.0" encoding="utf-8"?>
<!-- Generator: Adobe Illustrator 28.0.0, SVG Export Plug-In . SVG Version: 6.00 Build 0)  -->
<svg version="1.1" id="Layer_2_00000140707148255939625360000005737985961251079079_"
	 xmlns="http://www.w3.org/2000/svg" xmlns:xlink="http://www.w3.org/1999/xlink" x="0px" y="0px" viewBox="0 0 100.8 98.8"
	 style="enable-background:new 0 0 100.8 98.8;" xml:space="preserve">
<style type="text/css">
	.st0{fill:#636363;}
</style>
<g>
	<path class="st0" d="M67.6,62.4c6.9,0,12.4-5.1,12.4-11.9c0.1-12.3,0.1-24.6,0-36.9c0-5.2-3.4-9.7-8.3-11.3C71,2,70.2,1.9,69.4,1.7
		c-19.2,0-38.5,0-57.7,0c-0.1,0-0.1,0.1-0.2,0.1C6.2,2.4,1.1,7.3,1.1,14.5c0.1,19.7,0,39.5,0,59.2c0,0.5,0,1,0.1,1.5
		C1.7,77,3.4,78,5.1,77.3c0.6-0.2,1.1-0.6,1.6-1c5.1-4.2,10.2-8.4,15.2-12.7c1.1-0.9,2.1-1.3,3.6-1.3C39.5,62.4,53.6,62.4,67.6,62.4
		z M19.7,57.6c-3.9,3.3-7.8,6.5-11.7,9.7c-0.2,0.2-0.5,0.4-0.9,0.7c0-0.6,0-0.9,0-1.2c0-17.4,0-34.8,0-52.2c0-4.4,2.4-6.9,6.9-6.9
		c17.7,0,35.4,0,53,0c4.5,0,6.9,2.4,6.9,6.9c0,11.6,0,23.1,0,34.7c0,4.5-2.4,6.9-6.9,6.9c-14.6,0-29.2,0-43.8,0
		C21.9,56.3,20.8,56.7,19.7,57.6z"/>
	<path class="st0" d="M98.1,36c-1-5.6-6-9.9-11.7-10c-1.8,0-3.2,1.2-3.3,2.9c-0.1,1.7,1.2,3,2.9,3.2c4,0.3,6.2,2.7,6.2,6.7
		c0,16.5,0,33.1,0,49.6c0,0.3,0,0.6,0,1.1c-0.4-0.3-0.6-0.5-0.9-0.7c-2.9-2.3-5.8-4.6-8.7-6.9c-1-0.8-2.1-1.2-3.5-1.2
		c-13.7,0-27.5,0-41.2,0c-4,0-6.5-2.6-6.5-6.5c0-0.9,0-1.8,0-2.8c-0.1-1.6-1.4-2.8-2.9-2.8c-1.5-0.1-3,1.1-3.1,2.6
		c-0.1,2-0.1,4.1,0.3,6c1.2,5.8,6.1,9.6,12.1,9.6c13.3,0,26.7,0,40,0c0.7,0,1.3,0.2,1.9,0.6c4.3,3.4,8.5,6.9,12.8,10.3
		c0.4,0.3,0.8,0.6,1.2,0.9c1.5,0.8,3.2,0.3,4.1-1.2c0.1-0.2,0.2-0.4,0.4-0.6c0-20,0-40,0-60C98.2,36.4,98.1,36.2,98.1,36z"/>
	<path class="st0" d="M59.4,19.9c-0.4-0.1-0.9-0.1-1.3-0.1c-11.7,0-23.3,0-35,0c-0.3,0-0.6,0-0.9,0c-1.3,0.1-2.2,0.8-2.6,2
		c-0.7,2,0.7,4,3,4c6,0,12,0,18,0c2.3,0,4.7,0,7,0c3.7,0,7.5,0,11.2,0c1.6,0,2.9-1.2,3-2.7C62,21.7,61,20.3,59.4,19.9z"/>
	<path class="st0" d="M46.5,32c-4.8,0-9.5,0-14.3,0c-3.2,0-6.4,0-9.7,0c-1.4,0-2.4,0.6-2.9,1.9c-0.9,2,0.6,4.2,2.9,4.2
		c4,0,8,0,11.9,0c4,0,8,0,12,0c1.4,0,2.5-0.6,3-1.9C50.3,34.2,48.8,32,46.5,32z"/>
</g>
</svg>
