<svg width="19" height="20" viewBox="0 0 19 20" fill="none" xmlns="http://www.w3.org/2000/svg">
<path d="M16.5617 6.16797C17.959 5.84375 19 4.60547 19 3.125C19 1.39844 17.5829 0 15.8333 0C14.1154 0 12.7181 1.34766 12.6667 3.02734L5.39125 5.90234C4.81729 5.34375 4.03354 5 3.16667 5C1.41708 5 0 6.39844 0 8.125C0 9.85156 1.41708 11.25 3.16667 11.25C3.64958 11.25 4.10875 11.1445 4.51646 10.9531L10.2798 15.9297C10.1848 16.2266 10.1333 16.5469 10.1333 16.875C10.1333 18.6016 11.5504 20 13.3 20C15.0496 20 16.4667 18.6016 16.4667 16.875C16.4667 15.793 15.9125 14.8398 15.0654 14.2812L16.5617 6.16797ZM6.18687 9.07031C6.27396 8.80078 6.32542 8.51562 6.33333 8.22266L13.6087 5.35156C13.7512 5.48828 13.9017 5.61328 14.0679 5.72266L12.5717 13.832C12.354 13.8828 12.1442 13.9531 11.9462 14.0469L6.18687 9.07031Z" fill="#FF7A00"/>
</svg>
