<?xml version="1.0" standalone="no"?>
<!DOCTYPE svg PUBLIC "-//W3C//DTD SVG 20010904//EN"
 "http://www.w3.org/TR/2001/REC-SVG-20010904/DTD/svg10.dtd">
<svg version="1.0" xmlns="http://www.w3.org/2000/svg"
 width="191.000000pt" height="168.000000pt" viewBox="0 0 191.000000 168.000000"
 preserveAspectRatio="xMidYMid meet">

<g transform="translate(0.000000,168.000000) scale(0.100000,-0.100000)"
fill="#000000" stroke="none">
<path d="M384 1656 c-42 -18 -111 -82 -130 -119 -9 -16 -67 -233 -130 -484
l-114 -455 0 -197 c0 -192 1 -198 26 -249 14 -29 42 -65 62 -82 75 -61 54 -60
858 -60 708 0 735 1 787 20 29 11 69 36 89 57 63 65 68 87 68 321 l0 209 -114
452 c-125 501 -129 509 -221 566 l-48 30 -551 2 c-451 2 -557 0 -582 -11z
m1119 -110 c18 -7 41 -25 50 -39 9 -15 58 -190 107 -389 50 -200 93 -371 96
-380 5 -17 -8 -18 -178 -18 -237 0 -234 1 -306 -138 l-53 -102 -262 2 -262 3
-46 88 c-25 48 -57 100 -72 115 l-27 27 -195 3 c-146 2 -195 6 -195 15 0 24
179 727 192 754 7 15 28 38 47 50 l34 23 519 0 c415 0 525 -3 551 -14z m-947
-1033 c77 -152 57 -144 411 -141 l293 3 27 27 c15 15 47 67 72 115 l46 88 192
3 193 2 6 -24 c3 -13 4 -104 2 -202 -3 -168 -4 -181 -26 -211 -14 -20 -38 -37
-60 -43 -25 -8 -269 -10 -777 -8 -696 3 -742 4 -767 21 -42 29 -48 64 -48 273
l0 194 193 0 194 0 49 -97z"/>
</g>
</svg>
