<?xml version="1.0" encoding="UTF-8"?>
<svg id="Layer_2" data-name="Layer 2" xmlns="http://www.w3.org/2000/svg" viewBox="0 0 94.07 84.8">
  <defs>
    <style>
      .cls-1 {
        fill: #636363;
        stroke-width: 0px;
      }
    </style>
  </defs>
  <g id="Layer_1-2" data-name="Layer 1">
    <path class="cls-1" d="m93.13,39.21L49.69.7c-1.04-.92-2.6-.93-3.65-.03L.97,39.21c-1.17,1-1.3,2.75-.31,3.92,1,1.17,2.75,1.3,3.92.31l5.3-4.53v30.77c0,8.34,6.78,15.13,15.15,15.13h45c8.36,0,15.15-6.78,15.15-15.13v-30.08l4.26,3.78c1.15,1.02,2.91.91,3.92-.24h0c1.02-1.15.91-2.91-.24-3.93Zm-53.48,39.21v-25.89h17v25.89h-17Zm39.98-8.74c0,5.27-4.29,9.57-9.59,9.57h-7.83v-27.27c0-2.76-2.24-5.01-4.98-5.01h-18.13c-2.76,0-5.01,2.25-5.01,5.01v27.27h-9.05c-5.29,0-9.59-4.29-9.59-9.57v-35.53l30.53-26.11c1.05-.9,2.61-.89,3.65.03l30,26.59v35.01Z"/>
  </g>
</svg>