<?xml version="1.0" encoding="UTF-8"?>
<svg id="Layer_2" data-name="Layer 2" xmlns="http://www.w3.org/2000/svg" viewBox="0 0 77.6 84.67">
  <defs>
    <style>
      .cls-1 {
        fill: #636363;
        stroke-width: 0px;
      }
    </style>
  </defs>
  <g id="Layer_2-2" data-name="Layer 2">
    <g>
      <path class="cls-1" d="m68.89,60.1c-3.64-4.42-5.37-9.54-5.39-15.25-.01-3.97.15-7.95-.17-11.9-.86-10.59-8.64-19.36-19.01-21.73-.93-.21-1.87-.37-2.85-.56,0-2.63.01-5.22,0-7.8C41.45,1.17,40.33,0,38.8,0c-1.54,0-2.61,1.17-2.62,2.89-.01,2.31,0,4.63,0,6.94,0,.29-.02.58-.03.77-1.64.39-3.19.65-4.67,1.14s-2.97,1.05-4.32,1.82c-7.75,4.38-12.2,10.99-12.9,19.89-.3,3.75-.14,7.54-.13,11.32.01,3.93-.82,7.65-2.61,11.14-1.45,2.83-3.42,5.24-5.82,7.33-1.55,1.35-2.3,3.1-2.11,5.15.3,3.35,2.89,5.68,6.26,5.69,5.1.02,10.2.01,15.29,0,.52,0,.73.12.89.67,1.41,4.92,4.6,8.1,9.52,9.51.6.17,1.23.28,1.84.42h2.98c.15-.05.3-.13.45-.15,4.07-.68,7.22-2.77,9.33-6.31.75-1.26,1.21-2.69,1.85-4.12.17,0,.47,0,.77,0,5.04,0,10.09.03,15.13-.01,2.61-.02,4.53-1.27,5.65-3.62,1.13-2.36.55-5.12-1.35-6.99-1.12-1.1-2.3-2.15-3.29-3.36Zm-30.16,19.28c-3.29-.03-6.65-2.44-7.28-5.24h14.73c-.69,2.9-4.08,5.27-7.45,5.24Zm28.7-10.58c-9.56,0-19.12,0-28.69,0H10.55c-.22,0-.47.06-.66-.01-.35-.15-.84-.31-.95-.58-.1-.28.1-.79.33-1.05,1.46-1.64,3.13-3.13,4.44-4.87,3.89-5.16,5.69-11.05,5.68-17.51,0-3.72-.09-7.45.13-11.15.5-8.45,7.28-15.9,15.62-17.38,10.58-1.88,20.34,4.6,22.63,15.08.3,1.36.39,2.78.42,4.18.06,3,.02,6.01.02,9.01-.02,8.96,3.26,16.45,9.93,22.47.31.28.61.84.56,1.23-.08.63-.72.62-1.27.62Z"/>
      <path class="cls-1" d="m77.59,33.63c-.3-8.04-2.67-15.68-7.39-22.51-1.56-2.25-3.43-4.29-5.24-6.37-.84-.96-2.13-1.05-3.18-.46-1.02.58-1.57,1.71-1.23,2.89.17.58.55,1.14.97,1.58,6.25,6.52,9.84,14.24,10.64,23.24.11,1.29.08,2.59.27,3.87.2,1.32,1.43,2.13,2.8,2.02,1.27-.1,2.29-1.14,2.36-2.45.03-.52,0-1.05,0-1.82Z"/>
      <path class="cls-1" d="m5.29,35.19c.03-3.04.37-6.04,1.1-8.99,1.68-6.79,5.02-12.64,9.91-17.63,1.19-1.21,1.18-2.83.05-3.9-1.09-1.03-2.69-.96-3.83.21C4.57,12.99.47,22.75,0,34.07c0,.41-.01.83,0,1.24.06,1.55,1.28,2.67,2.82,2.59,1.39-.07,2.44-1.2,2.46-2.7Z"/>
    </g>
  </g>
</svg>