<?xml version="1.0" encoding="UTF-8"?>
<svg id="Layer_2" data-name="Layer 2" xmlns="http://www.w3.org/2000/svg" viewBox="0 0 92.18 86.07">
  <defs>
    <style>
      .cls-1 {
        fill: #636363;
        stroke-width: 0px;
      }
    </style>
  </defs>
  <g id="Layer_1-2" data-name="Layer 1">
    <g>
      <path class="cls-1" d="m80.58,44.13c-1.54,0-2.78,1.24-2.78,2.78v26.64c0,3.63-2.78,6.59-6.18,6.59H19.12c-3.4,0-6.18-2.96-6.18-6.59v-26.64c0-1.54-1.24-2.78-2.78-2.78h0c-1.54,0-2.78,1.24-2.78,2.78v26.64c0,6.9,5.27,12.52,11.75,12.52h52.5c6.47,0,11.75-5.62,11.75-12.52v-26.64c0-1.54-1.24-2.78-2.78-2.78h0Z"/>
      <rect class="cls-1" x="9.55" y="58.16" width="71.04" height="5.56"/>
      <path class="cls-1" d="m92.04,22.71c-.16-1.6-.58-2.42-.58-2.42L78.21.51c-.21-.32-.57-.51-.95-.51H14.92c-.38,0-.74.19-.95.51L.72,20.29s-.42.82-.58,2.42c-.16,1.6-1.31,8.76,6.9,13.19,8.23,4.43,14.37-1.65,16.17-2.38,2.22-.91,4.76,2.8,9.16,3.74,7.34,1.6,11.66-3.03,12.61-3.87.31-.28.68-.49,1.1-.57.43.08.8.3,1.1.57.96.85,5.27,5.47,12.61,3.87,4.4-.93,6.94-4.65,9.16-3.74,1.8.73,7.94,6.81,16.17,2.38,8.21-4.43,7.05-11.59,6.9-13.19Zm-8.3,8.3c-5.58,3.34-10.41.31-12.1-1.53l-1.38-1.5c-.21-.23-.52-.37-.83-.37h-2.21c-.39-.02-.76.17-.96.5-.81,1.31-3.41,4.62-8.76,4.71-6.67.09-9.68-5.21-9.68-5.21l-1.73.02-1.73-.02s-3,5.29-9.68,5.21c-5.35-.09-7.95-3.4-8.76-4.71-.21-.33-.57-.52-.96-.52h-2.21c-.32.02-.62.15-.83.39l-1.38,1.5c-1.69,1.85-6.52,4.87-12.1,1.53-5.1-3.05-3.33-8.94-2.99-9.93.03-.1.08-.18.14-.27l10.45-15.04c.21-.31.56-.49.94-.49h58.22c.37,0,.73.18.94.49l10.45,15.04c.06.09.1.17.14.27.34.99,2.11,6.88-2.99,9.93Z"/>
    </g>
  </g>
</svg>